# xmcd
#
# Track frame offsets:
#	150
#	14600
#	31042
#	52102
#	67167
#	78200
#	92297
#	107195
#	122587
#	134047
#	147617
#	164720
#	177810
#
# Disc length: 2599 seconds
#
# Revision: 1
# Processed by: cddbd v1.4b41PL1 Copyright (c) Steve Scherf et al.
# Submitted via: audiograbber 1.80
#
DISCID=b90a250d
DTITLE=Bill and Bonnie Hearne - Watching Life Through A Windshield
DYEAR=1900
DGENRE=
TTITLE0=You Ain't Going Nowhere
TTITLE1=Paint The Town Beige
TTITLE2=L.A. Freeway
TTITLE3=Drifter's Wind
TTITLE4=A-11
TTITLE5=Dare of an Angel
TTITLE6=Two of a Kind
TTITLE7=She Never Spoke Spanish To Me
TTITLE8=Victim Of Life's Circumstances
TTITLE9=The King Of Fools
TTITLE10=Bartender's Blues
TTITLE11=Lookin' At The World Through A Windshield
TTITLE12=Fools For Each Other
EXTD=
EXTT0=
EXTT1=
EXTT2=
EXTT3=
EXTT4=
EXTT5=
EXTT6=
EXTT7=
EXTT8=
EXTT9=
EXTT10=
EXTT11=
EXTT12=
PLAYORDER=
